<svg xmlns="http://www.w3.org/2000/svg" width="267.767" height="299.887" viewBox="0 0 267.767 299.887"><defs><style>.a{fill:#211715;}</style></defs><path class="a" d="M117.1,138.806c3.689,3.392,9.365,4.289,14.178,4.286s10.489-.893,14.181-4.286c2.279-2.095-1.122-5.483-3.394-3.394-.1.09-.2.178-.3.263-.326.269.316-.214.051-.043-.29.187-.57.384-.87.557a10.747,10.747,0,0,1-2.018.925,25.5,25.5,0,0,1-15.168.048,10.607,10.607,0,0,1-2.15-.973c-.274-.159-.534-.336-.8-.508-.484-.316.39.318-.017-.006-.1-.083-.2-.174-.3-.263-2.271-2.088-5.674,1.3-3.394,3.394Z"/><path class="a" d="M128.482,109.074c.723,2.747,1.3,5.529,1.853,8.313.065.326.126.652.193.976.017.08.064.435.019.057-.049-.409,0,.056,0,.146s0,.2,0,.308c.014.5.065-.395.007-.134q-.057.184.045-.095a.941.941,0,0,1,.276-.436c.139-.139.357-.334.065-.1.271-.218.1-.033-.085.024a2.246,2.246,0,0,0-.439.1c.086-.079.49-.019.147-.038-.125-.006-.253-.005-.379-.008-.088,0-.441-.048-.033.006s.023,0-.074-.02c-.189-.034-.377-.071-.567-.1a2.651,2.651,0,0,0-1.85.242,2.447,2.447,0,0,0-1.1,1.434c-.257,1.129.346,2.771,1.677,2.953a8.056,8.056,0,0,0,4.267-.081,4.04,4.04,0,0,0,2.612-2.417,4.623,4.623,0,0,0,.188-2.112c-.213-1.728-.627-3.444-.987-5.147-.365-1.727-.759-3.448-1.208-5.155a2.4,2.4,0,0,0-4.629,1.276Z"/><path class="a" d="M179.1,142.214a73.4,73.4,0,0,0,7.963-26.32,2.413,2.413,0,0,0-2.4-2.4,2.459,2.459,0,0,0-2.4,2.4,67.1,67.1,0,0,1-7.307,23.9c-1.469,2.718,2.674,5.144,4.144,2.423Z"/><path class="a" d="M73.591,108.939a71.044,71.044,0,0,0,8.2,31.787c1.455,2.726,5.6.305,4.144-2.422a65.682,65.682,0,0,1-7.545-29.365c-.068-3.084-4.868-3.095-4.8,0Z"/><path class="a" d="M100.914,98.269c-.931,3.029-.324,10,5.405,10.589,7.571-.046,7.974-8.469,5.425-12.429C109.657,93.186,103.521,91.838,100.914,98.269Z"/><path class="a" d="M161.34,98.275c.931,3.032.324,10.008-5.4,10.6-7.572-.046-7.975-8.48-5.426-12.445C152.6,93.185,158.733,91.835,161.34,98.275Z"/><path class="a" d="M74.249,82.736a9.683,9.683,0,0,0-11.315-1.553c-3.925,2.164-5.035,6.324-5.259,10.5-.438,8.181,1.736,17.217,6.875,23.722a14.927,14.927,0,0,0,11.868,6.021c3.083-.088,3.095-4.889,0-4.8-8.288.236-12.121-10.044-13.41-16.685a33.082,33.082,0,0,1-.584-6.024c-.017-2-.064-4.367.749-6.241a4.788,4.788,0,0,1,7.682-1.551c2.256,2.106,5.658-1.281,3.394-3.394Z"/><path class="a" d="M190.829,86.13a4.788,4.788,0,0,1,7.682,1.551c.816,1.878.766,4.241.749,6.241a32.993,32.993,0,0,1-.583,6.024c-1.289,6.64-5.122,16.921-13.411,16.685-3.09-.088-3.087,4.712,0,4.8,8.874.253,14.258-8,16.781-15.459a38.744,38.744,0,0,0,2.014-12.5c-.017-4.154-.515-8.627-3.988-11.381a9.632,9.632,0,0,0-12.638.642c-2.263,2.112,1.137,5.5,3.394,3.394Z"/><path class="a" d="M80.511,21.818C69.253,32.18,62.677,46.2,60.944,61.322a54.542,54.542,0,0,0-.023,12.852,2.476,2.476,0,0,0,2.4,2.4,2.414,2.414,0,0,0,2.4-2.4A58.442,58.442,0,0,1,75.9,34.224a56.829,56.829,0,0,1,8-9.012c2.278-2.1-1.124-5.484-3.394-3.394Z"/><path class="a" d="M158.445,20.594c4.891.872,9.429,3.579,13.431,6.408A46.724,46.724,0,0,1,183.1,38.284a35.948,35.948,0,0,1,5.255,10.708,82.147,82.147,0,0,1,2.815,14.189,108.526,108.526,0,0,1,.616,17.878c-.157,3.087,4.643,3.079,4.8,0a101.849,101.849,0,0,0-3.314-32.35,40.252,40.252,0,0,0-5.417-11.966,53.6,53.6,0,0,0-11.823-12.609c-4.721-3.606-10.373-7.109-16.311-8.168a2.466,2.466,0,0,0-2.952,1.676,2.42,2.42,0,0,0,1.676,2.952Z"/><path class="a" d="M152.635,51.579c14.64,7.483,26.119,20.894,32.883,35.734a2.419,2.419,0,0,0,3.284.861,2.457,2.457,0,0,0,.861-3.284c-7.068-15.506-19.319-29.642-34.605-37.456-2.745-1.4-5.177,2.737-2.423,4.145Z"/><path class="a" d="M153.3,13.86C145.446,3.8,132,.849,119.906.147a45.125,45.125,0,0,0-8.219.081,49.6,49.6,0,0,0-9.456,2.164,68.422,68.422,0,0,0-17.5,8.628A37.537,37.537,0,0,0,78,16.711a5.135,5.135,0,0,0-1.371,4.548c.437,1.937,2.063,3.268,3.7,4.226C83,27.052,85.415,22.9,82.749,21.34c-.464-.272-.993-.811-1.363-1.021-.078-.044-.283-.359-.07.081-.152-.315-.111.1.02-.213-.2.471.1-.152.154-.208-.26.281.02,0,.064-.045.409-.439.853-.862,1.287-1.28a38.278,38.278,0,0,1,5.73-4.441,64.676,64.676,0,0,1,15.466-7.365,43.49,43.49,0,0,1,7.98-1.86,42.124,42.124,0,0,1,7.244-.076,63.714,63.714,0,0,1,15.842,2.6,29.535,29.535,0,0,1,14.8,9.74,2.412,2.412,0,0,0,3.394,0,2.46,2.46,0,0,0,0-3.394Z"/><path class="a" d="M144.567,45.887C132.126,51,119.927,56.713,107.549,61.98a2.415,2.415,0,0,0-.861,3.284,2.464,2.464,0,0,0,3.284.861c6.929-2.949,13.821-5.984,20.715-9.016q4.6-2.024,9.2-4.039,1.762-.77,3.527-1.529.729-.315,1.461-.625c.395-.167-.274.113.332-.138l.634-.263a2.478,2.478,0,0,0,1.676-2.952,2.414,2.414,0,0,0-2.952-1.676Z"/><path class="a" d="M108.742,51.859c-1,3.8-1.488,7.713-2.3,11.556a2.4,2.4,0,0,0,4.629,1.276c.808-3.843,1.292-7.755,2.3-11.556a2.4,2.4,0,0,0-4.629-1.276Z"/><path class="a" d="M109.845,50.425c-4.765,3.253-9.094,7.293-13.492,11.01-6.167,5.212-12.3,10.466-18.5,15.639q-2.005,1.672-4.03,3.324-.768.624-1.544,1.239c-.119.095-.815.636-.5.392s-.325.245-.441.332a2.474,2.474,0,0,0-.861,3.283,2.417,2.417,0,0,0,3.283.861c5.125-3.825,9.944-8.085,14.821-12.215,6.04-5.115,12.049-10.268,18.145-15.317,1.2-.994,2.4-1.985,3.623-2.956.239-.19.48-.378.719-.567.492-.39-.357.262.2-.151.331-.247.66-.5,1-.73,2.536-1.731.138-5.892-2.423-4.144Z"/><path class="a" d="M46.9,141.065c.7-2.324.849-4.77,1.617-7.081l-2.314,1.762a23.969,23.969,0,0,1,4.048.276c.229.027.458.056.687.085.475.059.37.049.163.02q.829.115,1.657.237,1.891.282,3.778.606c6.516,1.108,12.994,2.451,19.44,3.913,14.487,3.287,29.132,7,42.894,12.671l.424.176c.263.11.281.118.056.023l.413.177c.372.161.743.322,1.113.487q1.113.5,2.21,1.023c1.321.638,2.624,1.315,3.888,2.059.582.343,1.157.7,1.717,1.077q.36.242.71.494c.1.074.2.151.306.224.41.289-.373-.3-.019-.017.424.344.841.692,1.232,1.073.178.173.351.351.517.535.145.16.665.82.141.135,1.067,1.394,3.133,1.687,4.145,0,.1-.163.213-.317.311-.481.286-.483-.25.279-.011,0,.289-.332.575-.66.889-.968s.638-.595.973-.874c.159-.132.321-.26.483-.388-.552.435.234-.164.363-.257a44.135,44.135,0,0,1,6.311-3.63c2.814-1.369,4.948-2.243,7.87-3.353,3.185-1.21,6.412-2.31,9.66-3.341a331.643,331.643,0,0,1,42.494-10.319q2.58-.459,5.169-.866,1.2-.189,2.405-.364.549-.079,1.1-.156l.537-.073.2-.027c2.462-.319,4.933-.6,7.413-.718l-2.314-1.762c.832,2.444.246,5.106,1.062,7.557.97,2.916,5.607,1.666,4.628-1.277-.8-2.421-.224-5.1-1.062-7.556a2.458,2.458,0,0,0-2.314-1.762,133.131,133.131,0,0,0-15.586,1.94c-7.013,1.178-13.984,2.612-20.91,4.222-14.011,3.256-28.257,6.993-41.36,13.04-4.441,2.049-9.838,4.621-12.459,8.987h4.145c-3.009-3.93-7.808-6.256-12.225-8.237A169.049,169.049,0,0,0,103.1,143,382.5,382.5,0,0,0,59.811,132.69c-2.9-.517-5.807-.988-8.728-1.365a27.6,27.6,0,0,0-4.877-.379,2.489,2.489,0,0,0-2.314,1.762c-.768,2.31-.915,4.757-1.618,7.081-.9,2.963,3.735,4.23,4.629,1.276Z"/><path class="a" d="M230.569,201.045q-.078-22.554-.146-45.107-.011-3.835-.021-7.673c0-1.9.335-4.255-.257-6.079-.949-2.921-3.816-3.047-6.367-2.949-1.7.065-3.389.195-5.078.355A276.729,276.729,0,0,0,190,144.14c-10.732,2.172-21.41,4.7-31.92,7.78-7.947,2.329-16.038,4.855-23.323,8.86-1.587.873-2.783-.355-4.159-1.115a49.987,49.987,0,0,0-4.557-2.185,125.789,125.789,0,0,0-12.3-4.423c-10-3.082-20.208-5.474-30.447-7.59-9.777-2.021-19.617-3.771-29.514-5.09-3.434-.458-6.88-.876-10.339-1.094-2.311-.146-4.773-.175-6.076,2.177-.99,1.787-.566,4.492-.571,6.482q-.051,20.07-.124,40.139l-.042,12.3c-.01,3.089,4.79,3.094,4.8,0q.076-22.083.143-44.167.012-3.818.021-7.635,0-1.47.007-2.941l0-1.2a3.355,3.355,0,0,0,0-.549c-.054-.308.022-.229-.092-.018-.145.266-.35,0-.1.126a1.322,1.322,0,0,0,.4.013c.312.011.623.025.935.042.7.037,1.405.086,2.107.142,1.621.129,3.239.3,4.855.483q1.392.161,2.781.339l.7.091.311.041q.794.106,1.586.219,3.34.469,6.67,1.007,7.313,1.173,14.582,2.592c10.258,1.992,20.478,4.27,30.543,7.089,4.362,1.223,8.7,2.548,12.958,4.106q1.372.5,2.73,1.044.617.246,1.229.5c-.372-.157.085.037.215.093.223.1.446.195.668.294a42.907,42.907,0,0,1,4.163,2.1,14.747,14.747,0,0,0,2.6,1.409,6.8,6.8,0,0,0,5.1-.314c1.389-.678,2.708-1.489,4.116-2.141q.556-.258,1.119-.5l.582-.253.3-.127c.347-.148-.323.134.031-.013q1.327-.549,2.67-1.064c2.023-.774,4.068-1.493,6.124-2.178,9.741-3.242,19.715-5.8,29.721-8.07,9.974-2.264,20.034-4.241,30.164-5.667,3.244-.456,7.36-.947,11.031-1.16.777-.045,1.555-.079,2.334-.1A8.545,8.545,0,0,0,225.7,144c.407-.058.2.12.009-.1-.16-.181-.029-.347-.122-.217-.12.17,0,.887,0,1.1l0,1.352q0,1.516.007,3.035.052,19.92.124,39.84.019,6.016.041,12.034c.011,3.088,4.811,3.094,4.8,0Z"/><path class="a" d="M36.4,258.821q-.021,4.641-.043,9.281c-.013,2.6-.4,5.547,2.232,7.073a6.507,6.507,0,0,0,2.73.649q.327.034.653.074c.184.021,1.17.152.353.04,1.189.164,2.375.351,3.558.554,6.844,1.174,13.629,2.712,20.387,4.3,16.348,3.836,32.637,8.1,48.677,13.074,3.087.957,6.165,1.947,9.214,3.02,1.212.426,2.419.866,3.617,1.333.5.194.99.395,1.484.6.462.189-.424-.185-.123-.051.1.045.206.087.309.133.23.1.46.209.691.31a8.71,8.71,0,0,0,7.408-.331c.209-.093.419-.183.629-.275.366-.159-.137.058-.174.073l.416-.173c.552-.224,1.1-.445,1.66-.659,2.735-1.055,5.512-2,8.3-2.92,15.827-5.206,31.987-9.514,48.183-13.406,7.24-1.74,14.514-3.4,21.849-4.695,1.336-.235,2.675-.456,4.017-.65.223-.033,1.033-.142.387-.057q.443-.059.887-.113c.562-.068,1.125-.129,1.69-.179.6-.052,1.2-.062,1.794-.169a4.463,4.463,0,0,0,3.46-3.021,11.228,11.228,0,0,0,.19-3.417q-.011-1.833-.018-3.666-.023-4.584-.041-9.169c-.013-3.088-4.813-3.094-4.8,0q.019,4.584.041,9.169.007,1.684.016,3.368,0,.707.008,1.412a2.577,2.577,0,0,0,0,.755c-.022.273-.01.313.038.12a.286.286,0,0,1,.215-.251c0-.018.261.05,0,0a1.277,1.277,0,0,0-.251.017c-.221.011-.441.033-.661.052-.538.048-1.075.106-1.612.17-1.364.162-2.725.356-4.082.571-6.732,1.065-13.4,2.549-20.038,4.091-16.052,3.729-32.021,7.978-47.75,12.9a162.811,162.811,0,0,0-16.409,5.815c-.2.088-.408.177-.61.27-.114.053-.228.112-.344.158.453-.178-.253.062-.362.084a3.6,3.6,0,0,1-1.365.009c-.108-.021-.821-.251-.364-.077-.116-.044-.229-.1-.343-.155-1.081-.481-2.178-.929-3.282-1.356-2.572-.994-5.186-1.882-7.807-2.739-15.246-4.987-30.813-9.081-46.387-12.9-7.273-1.783-14.57-3.49-21.913-4.957-2.644-.529-5.3-1.029-7.963-1.43-1.163-.174-2.33-.337-3.5-.457a2.338,2.338,0,0,1-.451-.043c.018-.046.457.16.256.108.218.056.021.383.081-.134a30.317,30.317,0,0,0,.017-3.191q.021-4.469.041-8.937c.013-3.089-4.787-3.093-4.8,0Z"/><path class="a" d="M46.211,216.425c2.777-.936,4.974-2.961,4.972-6.068a10.136,10.136,0,0,0-3.432-6.988c-3.823-3.612-9.464-5.638-14.565-6.6-4.976-.943-10.654-1.392-15.517.332-5.162,1.828-9.392,6.62-11.35,11.75-2.389,6.256-2.75,13.271-2.343,19.9.361,5.863,1.658,11.823,5.379,16.514a16.168,16.168,0,0,0,15.95,5.8,22.138,22.138,0,0,0,4.837-1.528,13.917,13.917,0,0,1,5.14-1.135c2.869-.1,5.954.532,8.754-.31,3.271-.984,5.395-3.772,4.854-7.232-.533-3.407-3.053-5.507-6.139-6.64a31.606,31.606,0,0,0-10.22-2.058,53.577,53.577,0,0,0-11.579,1.564c-3.024.623-1.744,5.25,1.276,4.629a56.547,56.547,0,0,1,8.6-1.364A23.94,23.94,0,0,1,38.709,238c1.588.451,3.781.8,4.862,2.172a3.629,3.629,0,0,1,.661,1.871c-.062.669-.413.993-1.142,1.3-1.856.786-4.45.244-6.51.23a26.733,26.733,0,0,0-4.182.3,21.922,21.922,0,0,0-4.76,1.53c-4.541,1.761-9.552,1.732-13.252-1.747-3.316-3.118-4.765-7.65-5.348-12.058a49.864,49.864,0,0,1,.425-16.371,22.253,22.253,0,0,1,2.439-7.044,16.545,16.545,0,0,1,4.374-4.945,12.731,12.731,0,0,1,4.9-2.113,24.855,24.855,0,0,1,6.177-.286,33.964,33.964,0,0,1,13.041,3.345c2.148,1.058,4.346,2.391,5.513,4.563a3.172,3.172,0,0,1,.465,1.929c.006-.035-.2.407-.243.451a2.818,2.818,0,0,1-1.193.668c-2.912.981-1.663,5.618,1.276,4.629Z"/><path class="a" d="M20.777,213.986a30.911,30.911,0,0,1,9.4-.491,39.665,39.665,0,0,1,9.049,1.557c2.586.8,5.569,1.83,7.582,3.705,1.848,1.721,2.1,4.578-.245,5.979-2.649,1.583-.237,5.735,2.423,4.145a8.07,8.07,0,0,0,4-8.171c-.476-3.373-2.777-5.77-5.633-7.412-5.25-3.017-11.384-4.234-17.363-4.615a34.862,34.862,0,0,0-10.486.675c-3,.736-1.728,5.366,1.276,4.628Z"/><path class="a" d="M19.794,226.517a50.992,50.992,0,0,1,21.713.591c2.444.607,4.914,1.811,5.862,4.091.856,2.056.674,3.564-1.429,4.487a2.416,2.416,0,0,0-.861,3.284,2.459,2.459,0,0,0,3.283.861c3.5-1.537,4.8-5.257,3.969-8.826a11.331,11.331,0,0,0-7.122-7.758,39.411,39.411,0,0,0-12.186-2.232,58,58,0,0,0-14.505.874,2.423,2.423,0,0,0-1.676,2.952,2.448,2.448,0,0,0,2.952,1.676Z"/><path class="a" d="M38.318,246.514c.467,1.63-.064,3.764-.745,5.7a24.257,24.257,0,0,1-2.946,5.738,6.719,6.719,0,0,1-1.189,1.374,18.73,18.73,0,0,1-3.578,2.53,15.83,15.83,0,0,1-7.194,1.866c-5.117.174-10.332-1.023-13.746-5.07A17.18,17.18,0,0,1,4.8,247.491a36.079,36.079,0,0,1,.778-7.055,26.908,26.908,0,0,1,2.3-7.4c1.454-2.724-2.688-5.152-4.144-2.423C1.21,235.348.226,241.254.017,246.566a22.07,22.07,0,0,0,4.746,14.549,17.881,17.881,0,0,0,7.271,5.628,25.147,25.147,0,0,0,9.354,1.792,22.46,22.46,0,0,0,9.462-1.824,19.143,19.143,0,0,0,6.828-4.889,27.38,27.38,0,0,0,4.3-7.717c1.05-2.75,1.8-5.96.972-8.867-.849-2.964-5.482-1.7-4.629,1.276Z"/><path class="a" d="M222.822,211.8a3.854,3.854,0,0,1-.99-.472c-.067-.053-.305-.282-.172-.126-.008-.009-.355-.7-.21-.344a2.408,2.408,0,0,1,.136-1.569,9.156,9.156,0,0,1,4.117-4.2,31.968,31.968,0,0,1,11.859-3.973c3.751-.517,8.3-.739,11.78.822,3.638,1.631,6.727,5.714,7.992,9.713A46.894,46.894,0,0,1,259,228.347c-.246,4.575-1.115,9.326-3.757,13.166a11.384,11.384,0,0,1-11.107,4.983c-3.012-.41-5.577-2.1-8.551-2.586a50.248,50.248,0,0,0-8.346-.224,5.587,5.587,0,0,1-2.862-.483,1.264,1.264,0,0,1-.824-1.4c.224-2.085,2.159-2.826,3.95-3.362a27.933,27.933,0,0,1,8.572-1.486,51.316,51.316,0,0,1,9.451,1.392,2.459,2.459,0,0,0,2.952-1.676,2.424,2.424,0,0,0-1.676-2.953,60.026,60.026,0,0,0-10.514-1.558,31.515,31.515,0,0,0-9.6,1.518c-2.661.766-5.334,1.857-6.826,4.345a6.794,6.794,0,0,0,.473,8.064c1.962,2.115,4.908,2.459,7.63,2.387,3.343-.088,6.5-.3,9.644,1.055,6.023,2.59,12.789,2.646,18.08-1.557,4.5-3.572,6.752-9.174,7.6-14.717a53.485,53.485,0,0,0-.569-20.19,22.483,22.483,0,0,0-3.743-8.711c-.795-1.016-1.57-2.055-2.438-3.01a19.183,19.183,0,0,0-3.347-2.728c-4.125-2.884-10-2.929-14.8-2.409-5.763.624-11.924,2.283-16.657,5.751-2.561,1.877-4.749,4.48-5.11,7.739-.373,3.365,1.907,5.713,4.922,6.729,2.934.988,4.193-3.647,1.276-4.629Z"/><path class="a" d="M248.255,209.358c-5.991-1.473-12.761-.878-18.72.465a35.707,35.707,0,0,0-8.021,2.884c-2.862,1.426-5.372,3.435-6.421,6.551a8.144,8.144,0,0,0,3.678,9.623c2.658,1.588,5.074-2.56,2.422-4.145-2.343-1.4-2.092-4.258-.244-5.979,2.013-1.875,5-2.905,7.582-3.705a39.665,39.665,0,0,1,9.049-1.557,30.871,30.871,0,0,1,9.4.491c3,.737,4.279-3.89,1.276-4.628Z"/><path class="a" d="M249.239,221.889a58,58,0,0,0-14.5-.874,39.416,39.416,0,0,0-12.186,2.232,11.335,11.335,0,0,0-7.122,7.758c-.827,3.568.466,7.289,3.968,8.826a2.478,2.478,0,0,0,3.284-.861,2.418,2.418,0,0,0-.861-3.284c-2.11-.925-2.284-2.434-1.43-4.487.948-2.276,3.419-3.487,5.863-4.091a51.12,51.12,0,0,1,21.713-.591,2.462,2.462,0,0,0,2.952-1.676,2.423,2.423,0,0,0-1.676-2.952Z"/><path class="a" d="M224.81,245.238a13.505,13.505,0,0,0,.587,7.789,28.917,28.917,0,0,0,3.515,7.241c3.341,4.89,9.188,7.7,14.989,8.185,6.218.518,13.47-.968,17.8-5.787a23.041,23.041,0,0,0,4.252-6.355,24.435,24.435,0,0,0,1.8-8.317,37.845,37.845,0,0,0-.844-8.325,31.179,31.179,0,0,0-2.884-9.053c-1.455-2.726-5.6-.3-4.144,2.423,2.025,3.794,2.814,8.8,3.045,13.145a17.354,17.354,0,0,1-3.344,11.566,14.178,14.178,0,0,1-5.37,4.457,19.616,19.616,0,0,1-7.311,1.517c-4.907.154-9.828-1.319-13.218-5.05-.02-.023-.457-.568-.184-.213-.153-.2-.3-.408-.439-.615-.317-.464-.613-.941-.9-1.426a25.182,25.182,0,0,1-1.692-3.437,19.848,19.848,0,0,1-1.083-3.683,6.478,6.478,0,0,1,.054-2.786c.851-2.975-3.779-4.245-4.629-1.276Z"/><path class="a" d="M131.614,172.543c0,12.951-.055,25.9-.092,38.852q-.076,26.649-.146,53.3-.024,10.73-.033,21.459c0,3.088,4.8,3.093,4.8,0q0-22.083.092-44.165.07-25.9.146-51.8.022-8.823.033-17.645c0-3.088-4.8-3.094-4.8,0Z"/></svg>